<?xml version="1.0" encoding="UTF-8"?>
<svg id="Calque_2" data-name="Calque 2" xmlns="http://www.w3.org/2000/svg" viewBox="0 0 781.73 743.47">
  <defs>
    <style>
      .cls-1 {
        fill: #f2a2cb;
      }
    </style>
  </defs>
  <path class="cls-1" d="m20.34,285.11c84.35-11.94,168.71-23.87,253.06-35.81-39.57,26.96-79.14,53.92-118.71,80.88-44.78-15.02-89.57-30.04-134.35-45.07Z"/>
  <path class="cls-1" d="m18,292.94c61.23,59.24,122.45,118.48,183.68,177.72-16.17-45.07-32.33-90.14-48.5-135.21-45.06-14.17-90.12-28.34-135.18-42.51Z"/>
  <path class="cls-1" d="m156.88,721.76c15.11-83.84,30.22-167.69,45.33-251.53,13.19,46.03,26.39,92.05,39.58,138.08-28.3,37.82-56.61,75.63-84.91,113.45Z"/>
  <path class="cls-1" d="m163.58,726.44c75.45-39.57,150.9-79.14,226.34-118.7-47.86,1.22-95.73,2.44-143.59,3.66-27.58,38.35-55.17,76.69-82.75,115.04Z"/>
  <path class="cls-1" d="m269.46,252.39c38.13-76.18,76.27-152.37,114.4-228.55-.32,47.88-.63,95.76-.95,143.64-37.82,28.3-75.64,56.61-113.45,84.91Z"/>
  <path class="cls-1" d="m759.51,285.11c-84.35-11.94-168.71-23.87-253.06-35.81,39.57,26.96,79.14,53.92,118.71,80.88,44.78-15.02,89.57-30.04,134.35-45.07Z"/>
  <path class="cls-1" d="m761.85,292.94c-61.23,59.24-122.45,118.48-183.68,177.72,16.17-45.07,32.33-90.14,48.5-135.21,45.06-14.17,90.12-28.34,135.18-42.51Z"/>
  <path class="cls-1" d="m622.97,721.76c-15.11-83.84-30.22-167.69-45.33-251.53-13.19,46.03-26.39,92.05-39.58,138.08,28.3,37.82,56.61,75.63,84.91,113.45Z"/>
  <path class="cls-1" d="m616.27,726.44c-75.45-39.57-150.9-79.14-226.34-118.7,47.86,1.22,95.73,2.44,143.59,3.66,27.58,38.35,55.17,76.69,82.75,115.04Z"/>
  <path class="cls-1" d="m395.99,23.84c.32,47.88.63,95.76.95,143.64,37.82,28.3,75.64,56.61,113.45,84.91-38.13-76.18-76.27-152.37-114.4-228.55"/>
  <path class="cls-1" d="m164.12,331.6c37.54-25.43,75.09-50.87,112.63-76.3,25.08,33.69,50.16,67.38,75.24,101.08-11.15,8.34-22.3,16.68-33.45,25.02-51.48-16.6-102.95-33.2-154.43-49.8Z"/>
  <path class="cls-1" d="m163.1,338.47c15.42,42.64,30.85,85.29,46.27,127.93,40.1-12.51,80.19-25.03,120.29-37.54-4.12-13.3-8.23-26.6-12.35-39.9-51.4-16.83-102.8-33.66-154.21-50.48Z"/>
  <path class="cls-1" d="m248.33,601.09c-12.59-43.57-25.17-87.13-37.76-130.7,39.79-13.44,79.59-26.88,119.38-40.33,4.49,13.18,8.97,26.36,13.46,39.54-31.69,43.83-63.39,87.65-95.08,131.48Z"/>
  <path class="cls-1" d="m252.85,605.89c44.71-.71,89.42-1.42,134.12-2.14-.34-42.89-.68-85.79-1.02-128.68-12.48-.08-24.96-.16-37.44-.24-31.89,43.69-63.77,87.37-95.66,131.06Z"/>
  <path class="cls-1" d="m388.48,169.22c-35.86,27.76-71.71,55.52-107.57,83.29,24.21,34.32,48.42,68.65,72.63,102.97,11.4-8,22.79-16,34.19-24,.25-54.09.5-108.17.75-162.26Z"/>
  <path class="cls-1" d="m614.77,331.6c-37.54-25.43-75.09-50.87-112.63-76.3-25.08,33.69-50.16,67.38-75.24,101.08,11.15,8.34,22.3,16.68,33.45,25.02,51.48-16.6,102.95-33.2,154.43-49.8Z"/>
  <path class="cls-1" d="m615.79,338.47c-15.42,42.64-30.85,85.29-46.27,127.93-40.1-12.51-80.19-25.03-120.29-37.54,4.12-13.3,8.23-26.6,12.35-39.9,51.4-16.83,102.8-33.66,154.21-50.48Z"/>
  <path class="cls-1" d="m530.56,601.09c12.59-43.57,25.17-87.13,37.76-130.7-39.79-13.44-79.59-26.88-119.38-40.33-4.49,13.18-8.97,26.36-13.46,39.54,31.69,43.83,63.39,87.65,95.08,131.48Z"/>
  <path class="cls-1" d="m526.04,605.89c-44.71-.71-89.42-1.42-134.12-2.14.34-42.89.68-85.79,1.02-128.68,12.48-.08,24.96-.16,37.44-.24,31.89,43.69,63.77,87.37,95.66,131.06Z"/>
  <path class="cls-1" d="m390.41,169.22c35.86,27.76,71.71,55.52,107.57,83.29-24.21,34.32-48.42,68.65-72.63,102.97-11.4-8-22.79-16-34.19-24-.25-54.09-.5-108.17-.75-162.26Z"/>
  <path class="cls-1" d="m320.55,385.73c22.96-16.68,45.92-33.37,68.89-50.05,22.67,16.73,45.34,33.46,68.01,50.2-8.74,28.14-17.48,56.28-26.21,84.43-27.8.12-55.6.24-83.4.36-9.09-28.31-18.19-56.62-27.28-84.93Z"/>
</svg>